<svg width="137" height="37" viewBox="0 0 137 37" fill="none" xmlns="http://www.w3.org/2000/svg">
<path d="M22.1338 17.563C22.1003 13.5534 25.4058 11.6046 25.551 11.515C23.6749 8.7822 20.7714 8.4014 19.7552 8.3678C17.3208 8.1102 14.9533 9.835 13.7138 9.835C12.4519 9.835 10.5311 8.4014 8.47634 8.435C5.82971 8.4798 3.33942 10.0142 1.98819 12.411C-0.814776 17.283 1.27349 24.451 3.96479 28.3934C5.31602 30.3198 6.87943 32.4814 8.94536 32.403C10.9555 32.3246 11.7148 31.115 14.1381 31.115C16.5502 31.115 17.2538 32.403 19.3532 32.3582C21.5196 32.3246 22.8709 30.4206 24.1774 28.4718C25.7297 26.2654 26.355 24.0814 26.3774 23.9694C26.3215 23.947 22.1785 22.3566 22.1338 17.563ZM18.1695 5.7806C19.2527 4.4254 19.9897 2.5774 19.7887 0.695801C18.2253 0.763001 16.2599 1.7822 15.132 3.115C14.1381 4.291 13.2447 6.2062 13.4681 8.0094C15.2325 8.1438 17.0416 7.1134 18.1695 5.7806ZM51.3025 32.123H48.4884L46.9473 27.2622H41.5871L40.1242 32.123H37.3882L42.6926 15.5806H45.9758L51.3025 32.123ZM46.4895 25.2238L45.0936 20.9118C44.9484 20.4638 44.6692 19.4334 44.2672 17.7982H44.2114C44.0439 18.5038 43.787 19.5454 43.4297 20.9118L42.0561 25.2238H46.4895ZM64.9377 26.019C64.9377 28.0462 64.3905 29.6478 63.285 30.8238C62.3022 31.8766 61.0738 32.3918 59.6221 32.3918C58.0475 32.3918 56.9196 31.8318 56.2273 30.7006V36.9614H53.5807V24.115C53.5807 22.8382 53.5472 21.539 53.4801 20.195H55.8029L55.9481 22.0878H55.9928C56.875 20.6654 58.215 19.9486 60.0018 19.9486C61.4089 19.9486 62.5702 20.5086 63.5083 21.6174C64.4687 22.7374 64.9377 24.1934 64.9377 26.019ZM62.2464 26.1086C62.2464 24.9438 61.9896 23.9918 61.4647 23.2414C60.8952 22.4574 60.1246 22.0654 59.1643 22.0654C58.5166 22.0654 57.9247 22.2894 57.3887 22.715C56.8638 23.1518 56.5065 23.7118 56.3501 24.4174C56.2719 24.7422 56.2273 25.011 56.2273 25.2238V27.2174C56.2273 28.0798 56.4953 28.819 57.0202 29.4126C57.545 30.0062 58.2374 30.3086 59.0861 30.3086C60.08 30.3086 60.8505 29.9166 61.4089 29.155C61.9672 28.3822 62.2464 27.3742 62.2464 26.1086ZM78.6063 26.019C78.6063 28.0462 78.0592 29.6478 76.9536 30.8238C75.9709 31.8766 74.7425 32.3918 73.2908 32.3918C71.7162 32.3918 70.5883 31.8318 69.8959 30.7006V36.9614H67.2493V24.115C67.2493 22.8382 67.2158 21.539 67.1488 20.195H69.4716L69.6168 22.0878H69.6614C70.5436 20.6654 71.8837 19.9486 73.6704 19.9486C75.0775 19.9486 76.2389 20.5086 77.1769 21.6174C78.1373 22.7374 78.6063 24.1934 78.6063 26.019ZM75.9151 26.1086C75.9151 24.9438 75.6582 23.9918 75.1334 23.2414C74.5638 22.4574 73.7933 22.0654 72.8329 22.0654C72.1852 22.0654 71.5934 22.2894 71.0573 22.715C70.5325 23.1518 70.1863 23.7118 70.0188 24.4174C69.9406 24.7422 69.8959 25.011 69.8959 25.2238V27.2174C69.8959 28.0798 70.1639 28.819 70.6888 29.4126C71.2137 30.0062 71.906 30.3086 72.7547 30.3086C73.7486 30.3086 74.5303 29.9166 75.0775 29.155C75.647 28.3822 75.9151 27.3742 75.9151 26.1086ZM93.9054 27.4862C93.9054 28.8974 93.4141 30.0398 92.4425 30.9246C91.3705 31.8878 89.8741 32.3694 87.9533 32.3694C86.1777 32.3694 84.7595 32.0222 83.6874 31.339L84.3016 29.1326C85.463 29.8158 86.7361 30.163 88.1208 30.163C89.1147 30.163 89.8964 29.939 90.4436 29.491C91.0019 29.043 91.2811 28.4382 91.2811 27.6878C91.2811 27.0158 91.0466 26.4558 90.5999 25.9966C90.1421 25.5374 89.3827 25.1118 88.3218 24.7198C85.4072 23.6334 83.9666 22.0542 83.9666 19.9822C83.9666 18.627 84.4803 17.5182 85.4965 16.6446C86.5127 15.7822 87.864 15.3454 89.5502 15.3454C91.0466 15.3454 92.2973 15.603 93.2912 16.1294L92.6212 18.2798C91.6831 17.7758 90.6334 17.5182 89.4497 17.5182C88.5228 17.5182 87.7858 17.7534 87.2609 18.2014C86.8254 18.6158 86.6021 19.1086 86.6021 19.7022C86.6021 20.3518 86.8589 20.9006 87.3614 21.315C87.797 21.707 88.601 22.1326 89.7624 22.5918C91.1806 23.163 92.2192 23.835 92.8892 24.6078C93.5704 25.3806 93.9054 26.3438 93.9054 27.4862ZM102.66 22.1886H99.7459V27.979C99.7459 29.4462 100.26 30.1854 101.287 30.1854C101.756 30.1854 102.147 30.1406 102.459 30.0622L102.538 32.0782C102.013 32.2686 101.332 32.3694 100.483 32.3694C99.4332 32.3694 98.6291 32.0446 98.0373 31.4062C97.4454 30.7678 97.1551 29.6926 97.1551 28.1918V22.1774H95.4241V20.195H97.1551V18.011L99.7459 17.227V20.195H102.66V22.1886ZM115.771 26.0638C115.771 27.9006 115.246 29.4014 114.207 30.5774C113.113 31.787 111.661 32.3918 109.852 32.3918C108.11 32.3918 106.714 31.8094 105.676 30.6558C104.637 29.5022 104.123 28.035 104.123 26.2654C104.123 24.4174 104.659 22.9054 105.72 21.7294C106.792 20.5534 108.233 19.9598 110.042 19.9598C111.784 19.9598 113.191 20.5422 114.252 21.707C115.268 22.827 115.771 24.283 115.771 26.0638ZM113.035 26.1198C113.035 25.0222 112.8 24.0926 112.331 23.3086C111.773 22.3566 110.98 21.8862 109.953 21.8862C108.892 21.8862 108.077 22.3566 107.529 23.3086C107.049 24.0926 106.826 25.0446 106.826 26.1758C106.826 27.2734 107.06 28.2142 107.529 28.987C108.099 29.939 108.903 30.4094 109.93 30.4094C110.935 30.4094 111.728 29.9278 112.309 28.9646C112.789 28.1582 113.035 27.2174 113.035 26.1198ZM124.37 22.5246C124.113 22.4798 123.834 22.4574 123.532 22.4574C122.605 22.4574 121.879 22.8046 121.377 23.5102C120.941 24.1262 120.718 24.9214 120.718 25.8622V32.123H118.071V23.947C118.071 22.5694 118.049 21.315 117.993 20.195H120.294L120.394 22.4798H120.472C120.751 21.6958 121.187 21.0574 121.79 20.587C122.382 20.1614 123.018 19.9486 123.7 19.9486C123.945 19.9486 124.169 19.971 124.358 19.9934L124.37 22.5246ZM136.184 25.5934C136.184 26.0638 136.151 26.467 136.084 26.7918H128.155C128.189 27.9678 128.568 28.875 129.305 29.491C129.975 30.0398 130.835 30.3198 131.896 30.3198C133.069 30.3198 134.141 30.1294 135.101 29.7598L135.514 31.5966C134.387 32.0894 133.058 32.3358 131.528 32.3358C129.685 32.3358 128.233 31.787 127.184 30.7006C126.134 29.6142 125.609 28.147 125.609 26.3214C125.609 24.5294 126.1 23.0286 127.083 21.8302C128.111 20.5534 129.495 19.915 131.237 19.915C132.946 19.915 134.253 20.5534 135.124 21.8302C135.827 22.8606 136.184 24.1038 136.184 25.5934ZM133.661 24.9102C133.683 24.1262 133.504 23.443 133.147 22.8718C132.689 22.1326 131.986 21.763 131.048 21.763C130.188 21.763 129.484 22.1214 128.948 22.8382C128.513 23.4094 128.245 24.1038 128.166 24.899L133.661 24.9102Z" fill="black"/>
</svg>
