<svg width="40" height="40" viewBox="0 0 40 40" fill="none" xmlns="http://www.w3.org/2000/svg">
<path d="M11.6667 18.3332V31.6665C11.6667 32.1085 11.4911 32.5325 11.1785 32.845C10.866 33.1576 10.442 33.3332 10 33.3332H6.66667C6.22464 33.3332 5.80072 33.1576 5.48816 32.845C5.17559 32.5325 5 32.1085 5 31.6665V19.9998C5 19.5578 5.17559 19.1339 5.48816 18.8213C5.80072 18.5088 6.22464 18.3332 6.66667 18.3332H11.6667ZM11.6667 18.3332C13.4348 18.3332 15.1305 17.6308 16.3807 16.3805C17.631 15.1303 18.3333 13.4346 18.3333 11.6665V9.99984C18.3333 9.11578 18.6845 8.26794 19.3096 7.64281C19.9348 7.01769 20.7826 6.6665 21.6667 6.6665C22.5507 6.6665 23.3986 7.01769 24.0237 7.64281C24.6488 8.26794 25 9.11578 25 9.99984V18.3332H30C30.8841 18.3332 31.7319 18.6844 32.357 19.3095C32.9821 19.9346 33.3333 20.7824 33.3333 21.6665L31.6667 29.9998C31.427 31.0223 30.9723 31.9002 30.3711 32.5014C29.7699 33.1026 29.0547 33.3945 28.3333 33.3332H16.6667C15.3406 33.3332 14.0688 32.8064 13.1311 31.8687C12.1935 30.931 11.6667 29.6593 11.6667 28.3332" stroke="#0D0D0D" stroke-width="1.5" stroke-linecap="round" stroke-linejoin="round"/>
</svg>
