<svg width="40" height="40" viewBox="0 0 40 40" fill="none" xmlns="http://www.w3.org/2000/svg">
<path d="M29.6666 33.0285L26.0466 34.9251C25.9391 34.981 25.8183 35.006 25.6975 34.9972C25.5767 34.9884 25.4608 34.9462 25.3626 34.8753C25.2644 34.8044 25.1878 34.7077 25.1414 34.5958C25.095 34.4839 25.0807 34.3614 25.0999 34.2418L25.7916 30.2235L22.8632 27.3785C22.7758 27.294 22.7139 27.1866 22.6846 27.0686C22.6553 26.9506 22.6598 26.8268 22.6975 26.7112C22.7352 26.5956 22.8047 26.493 22.8979 26.415C22.9912 26.337 23.1045 26.2868 23.2249 26.2701L27.2716 25.6835L29.0816 22.0285C29.1357 21.9196 29.2191 21.828 29.3225 21.764C29.4258 21.6999 29.545 21.666 29.6666 21.666C29.7881 21.666 29.9073 21.6999 30.0107 21.764C30.114 21.828 30.1974 21.9196 30.2516 22.0285L32.0616 25.6835L36.1082 26.2701C36.2283 26.2874 36.3411 26.3379 36.434 26.416C36.5268 26.494 36.596 26.5965 36.6336 26.7119C36.6713 26.8272 36.6759 26.9507 36.6469 27.0685C36.618 27.1863 36.5567 27.2937 36.4699 27.3785L33.5416 30.2235L34.2316 34.2401C34.2523 34.3599 34.239 34.4831 34.1932 34.5957C34.1474 34.7083 34.071 34.8058 33.9726 34.8771C33.8741 34.9485 33.7577 34.9908 33.6364 34.9993C33.5152 35.0078 33.394 34.9821 33.2866 34.9251L29.6666 33.0285Z" stroke="#0D0D0D" stroke-width="1.5" stroke-linecap="round" stroke-linejoin="round"/>
<path d="M10.3333 33.0285L6.71332 34.9251C6.6059 34.981 6.48504 35.006 6.36426 34.9972C6.24347 34.9884 6.1275 34.9462 6.02931 34.8753C5.93111 34.8044 5.85455 34.7077 5.80817 34.5958C5.76179 34.4839 5.74742 34.3614 5.76666 34.2418L6.45832 30.2235L3.52999 27.3785C3.44258 27.294 3.3807 27.1866 3.35139 27.0686C3.32209 26.9506 3.32655 26.8268 3.36426 26.7112C3.40197 26.5956 3.47142 26.493 3.56468 26.415C3.65793 26.337 3.77124 26.2868 3.89166 26.2701L7.93832 25.6835L9.74832 22.0285C9.80245 21.9196 9.88589 21.828 9.98923 21.764C10.0926 21.6999 10.2117 21.666 10.3333 21.666C10.4549 21.666 10.5741 21.6999 10.6774 21.764C10.7808 21.828 10.8642 21.9196 10.9183 22.0285L12.7283 25.6835L16.775 26.2701C16.8951 26.2874 17.0079 26.3379 17.1007 26.416C17.1936 26.494 17.2627 26.5965 17.3004 26.7119C17.338 26.8272 17.3426 26.9507 17.3137 27.0685C17.2847 27.1863 17.2234 27.2937 17.1367 27.3785L14.2083 30.2235L14.8983 34.2401C14.919 34.3599 14.9057 34.4831 14.86 34.5957C14.8142 34.7083 14.7377 34.8058 14.6393 34.8771C14.5409 34.9485 14.4244 34.9908 14.3032 34.9993C14.1819 35.0078 14.0607 34.9821 13.9533 34.9251L10.3333 33.0285Z" stroke="#0D0D0D" stroke-width="1.5" stroke-linecap="round" stroke-linejoin="round"/>
<path d="M20.0001 16.3615L16.3801 18.2581C16.2726 18.314 16.1518 18.339 16.031 18.3302C15.9102 18.3214 15.7943 18.2792 15.6961 18.2083C15.5979 18.1375 15.5213 18.0407 15.4749 17.9288C15.4285 17.8169 15.4142 17.6944 15.4334 17.5748L16.1251 13.5565L13.1967 10.7115C13.1093 10.627 13.0474 10.5196 13.0181 10.4016C12.9888 10.2836 12.9933 10.1598 13.031 10.0442C13.0687 9.92863 13.1382 9.82599 13.2314 9.748C13.3247 9.67001 13.438 9.61981 13.5584 9.60313L17.6051 9.01646L19.4151 5.36146C19.4692 5.2526 19.5526 5.16101 19.656 5.09698C19.7593 5.03295 19.8785 4.99902 20.0001 4.99902C20.1216 4.99902 20.2408 5.03295 20.3442 5.09698C20.4475 5.16101 20.5309 5.2526 20.5851 5.36146L22.3951 9.01646L26.4417 9.60313C26.5618 9.6204 26.6746 9.67093 26.7675 9.74899C26.8603 9.82706 26.9295 9.92955 26.9671 10.0449C27.0047 10.1602 27.0094 10.2837 26.9804 10.4015C26.9515 10.5193 26.8902 10.6267 26.8034 10.7115L23.8751 13.5565L24.5651 17.5731C24.5858 17.6929 24.5725 17.8161 24.5267 17.9287C24.4809 18.0413 24.4045 18.1388 24.3061 18.2101C24.2076 18.2815 24.0912 18.3238 23.9699 18.3323C23.8487 18.3408 23.7275 18.3151 23.6201 18.2581L20.0001 16.3615Z" stroke="#0D0D0D" stroke-width="1.5" stroke-linecap="round" stroke-linejoin="round"/>
</svg>
